<?xml version="1.0" encoding="UTF-8" standalone="no"?>
<svg xmlns="http://www.w3.org/2000/svg" xmlns:xlink="http://www.w3.org/1999/xlink" width="800" height="600" viewBox="0 0 800 600">
  <defs>
    <linearGradient id="blueGradient" x1="0%" y1="0%" x2="100%" y2="100%">
      <stop offset="0%" style="stop-color:#4353FF;stop-opacity:1" />
      <stop offset="100%" style="stop-color:#2D3FE7;stop-opacity:1" />
    </linearGradient>
  </defs>
  
  <!-- Background -->
  <rect width="800" height="600" fill="url(#blueGradient)" />
  
  <!-- Tech illustration elements -->
  <g transform="translate(100, 50)">
    <!-- Mobile device -->
    <rect x="250" y="100" width="200" height="350" rx="20" ry="20" fill="#111" stroke="#444" stroke-width="2" />
    <rect x="260" y="120" width="180" height="310" rx="5" ry="5" fill="#333" />
    <rect x="270" y="130" width="160" height="290" rx="2" ry="2" fill="#222" />
    
    <!-- Screen content -->
    <rect x="280" y="140" width="140" height="270" fill="#4353FF" />
    <rect x="290" y="160" width="120" height="80" rx="5" ry="5" fill="#FF5252" opacity="0.8" />
    <rect x="290" y="250" width="120" height="10" rx="5" ry="5" fill="#FFF" opacity="0.5" />
    <rect x="290" y="270" width="120" height="10" rx="5" ry="5" fill="#FFF" opacity="0.5" />
    <rect x="290" y="290" width="120" height="10" rx="5" ry="5" fill="#FFF" opacity="0.5" />
    <rect x="290" y="310" width="80" height="30" rx="15" ry="15" fill="#FFF" opacity="0.7" />
    
    <!-- Floating elements -->
    <g transform="translate(150, 150)">
      <rect x="0" y="0" width="80" height="60" rx="10" ry="10" fill="#673AB7" opacity="0.8" />
      <rect x="10" y="10" width="60" height="5" fill="#FFF" opacity="0.7" />
      <rect x="10" y="20" width="40" height="5" fill="#FFF" opacity="0.7" />
      <rect x="10" y="30" width="50" height="5" fill="#FFF" opacity="0.7" />
      <rect x="10" y="40" width="30" height="5" fill="#FFF" opacity="0.7" />
    </g>
    
    <g transform="translate(450, 200)">
      <rect x="0" y="0" width="100" height="80" rx="10" ry="10" fill="#2196F3" opacity="0.8" />
      <rect x="10" y="10" width="80" height="5" fill="#FFF" opacity="0.7" />
      <rect x="10" y="20" width="60" height="5" fill="#FFF" opacity="0.7" />
      <rect x="10" y="30" width="70" height="5" fill="#FFF" opacity="0.7" />
      <rect x="10" y="40" width="50" height="5" fill="#FFF" opacity="0.7" />
      <rect x="10" y="50" width="40" height="15" rx="7.5" ry="7.5" fill="#FFF" opacity="0.7" />
    </g>
    
    <g transform="translate(400, 100)">
      <rect x="0" y="0" width="70" height="50" rx="10" ry="10" fill="#E91E63" opacity="0.8" />
      <rect x="10" y="10" width="50" height="5" fill="#FFF" opacity="0.7" />
      <rect x="10" y="20" width="30" height="5" fill="#FFF" opacity="0.7" />
      <rect x="10" y="30" width="40" height="5" fill="#FFF" opacity="0.7" />
    </g>
    
    <!-- Person figure -->
    <g transform="translate(500, 300)">
      <!-- Head -->
      <circle cx="30" cy="30" r="20" fill="#FFD54F" />
      <!-- Body -->
      <rect x="20" y="50" width="20" height="40" fill="#FFD54F" />
      <!-- Arms -->
      <rect x="0" y="50" width="20" height="10" fill="#FFD54F" />
      <rect x="40" y="50" width="20" height="10" fill="#FFD54F" />
      <!-- Legs -->
      <rect x="20" y="90" width="8" height="20" fill="#FFD54F" />
      <rect x="32" y="90" width="8" height="20" fill="#FFD54F" />
      
      <!-- Device in hands -->
      <rect x="-10" y="30" width="30" height="20" rx="2" ry="2" fill="#333" />
    </g>
    
    <!-- Data visualization elements -->
    <g transform="translate(100, 350)">
      <rect x="0" y="0" width="10" height="40" fill="#FFF" opacity="0.6" />
      <rect x="15" y="10" width="10" height="30" fill="#FFF" opacity="0.6" />
      <rect x="30" y="5" width="10" height="35" fill="#FFF" opacity="0.6" />
      <rect x="45" y="15" width="10" height="25" fill="#FFF" opacity="0.6" />
      <rect x="60" y="0" width="10" height="40" fill="#FFF" opacity="0.6" />
    </g>
    
    <!-- Shield icon -->
    <g transform="translate(150, 250)">
      <path d="M25,0 L50,10 L50,30 C50,45 40,55 25,60 C10,55 0,45 0,30 L0,10 Z" fill="#4CAF50" opacity="0.8" />
      <path d="M20,25 L30,35 L40,15" stroke="#FFF" stroke-width="3" fill="none" />
    </g>
    
    <!-- Laptop -->
    <g transform="translate(50, 150)">
      <rect x="0" y="0" width="100" height="70" rx="5" ry="5" fill="#333" />
      <rect x="5" y="5" width="90" height="60" fill="#222" />
      <rect x="10" y="10" width="80" height="50" fill="#4353FF" opacity="0.7" />
      <path d="M-10,70 L110,70 L100,85 L0,85 Z" fill="#444" />
    </g>
  </g>
  
  <!-- Decorative elements -->
  <g opacity="0.2">
    <circle cx="100" cy="100" r="5" fill="#FFF" />
    <circle cx="150" cy="150" r="3" fill="#FFF" />
    <circle cx="200" cy="50" r="4" fill="#FFF" />
    <circle cx="250" cy="200" r="2" fill="#FFF" />
    <circle cx="300" cy="100" r="3" fill="#FFF" />
    <circle cx="350" cy="150" r="5" fill="#FFF" />
    <circle cx="400" cy="50" r="2" fill="#FFF" />
    <circle cx="450" cy="200" r="4" fill="#FFF" />
    <circle cx="500" cy="100" r="3" fill="#FFF" />
    <circle cx="550" cy="150" r="2" fill="#FFF" />
    <circle cx="600" cy="50" r="5" fill="#FFF" />
    <circle cx="650" cy="200" r="3" fill="#FFF" />
    <circle cx="700" cy="100" r="4" fill="#FFF" />
    <circle cx="750" cy="150" r="2" fill="#FFF" />
  </g>
</svg>
